<?xml version="1.0" encoding="UTF-8" standalone="yes"?>
<svg version="1.2" width="100%" viewBox="0 0 225 225" xml:space="preserve" baseProfile="tiny-ps" xmlns="http://www.w3.org/2000/svg">
  <title>bimi-svg-tiny-12-ps</title>
  <path fill="#0255B7" stroke="none" d="&#xA;M225.000000,226.000000 &#xA;&#x9;C150.406296,226.000000 75.812576,226.000000 1.000000,226.000000 &#xA;&#x9;C1.000000,151.645920 1.000000,77.291618 1.468641,2.473164 &#xA;&#x9;C23.101242,2.010893 44.265205,2.005148 65.429161,2.016150 &#xA;&#x9;C118.588402,2.043783 171.747650,2.078985 224.931732,2.568809 &#xA;&#x9;C224.971039,77.350975 224.985519,151.675491 225.000000,226.000000 &#xA;M188.761368,85.579659 &#xA;&#x9;C188.587082,85.288353 188.330414,85.134079 187.703018,84.589256 &#xA;&#x9;C187.100922,84.064529 186.498810,83.539803 185.610092,82.414749 &#xA;&#x9;C174.484314,72.001808 160.698166,71.935165 146.795395,72.648750 &#xA;&#x9;C145.902924,72.694557 144.453278,74.792374 144.399475,75.986824 &#xA;&#x9;C144.190842,80.616821 144.442291,85.267563 144.365494,90.794930 &#xA;&#x9;C144.440826,92.868835 144.516159,94.942734 144.369522,97.797203 &#xA;&#x9;C144.455124,98.863724 144.540726,99.930252 144.398453,101.760132 &#xA;&#x9;C144.409470,102.820053 144.420486,103.879982 144.178864,105.745598 &#xA;&#x9;C144.374878,108.363327 144.570892,110.981064 145.657913,113.946945 &#xA;&#x9;C148.720245,113.946945 151.782578,113.946945 154.918472,113.946945 &#xA;&#x9;C154.918472,109.250160 154.918472,105.164612 155.118042,100.279564 &#xA;&#x9;C155.066711,99.191010 155.015381,98.102448 155.149399,96.139099 &#xA;&#x9;C155.093994,93.758492 155.038574,91.377892 155.220688,88.223518 &#xA;&#x9;C154.857330,84.293991 156.863708,82.620575 160.477097,83.489723 &#xA;&#x9;C165.403122,84.674606 170.216354,86.328506 175.532288,88.275436 &#xA;&#x9;C177.408951,89.848351 179.285614,91.421265 181.251282,93.464752 &#xA;&#x9;C181.415909,93.764183 181.664734,93.952217 182.006409,93.996605 &#xA;&#x9;C182.006409,93.996605 181.976105,94.010445 182.232147,94.641975 &#xA;&#x9;C183.498291,96.757202 184.764435,98.872429 186.096191,101.727333 &#xA;&#x9;C186.671356,103.608589 187.246506,105.489838 187.778366,108.185722 &#xA;&#x9;C187.900314,109.818466 188.022278,111.451218 187.989700,113.922020 &#xA;&#x9;C188.354462,120.829544 186.024414,126.995934 182.200821,133.230331 &#xA;&#x9;C179.820496,135.524063 177.440155,137.817810 174.348419,140.263107 &#xA;&#x9;C164.185837,145.788879 153.506790,145.445282 142.439163,142.536652 &#xA;&#x9;C142.168427,141.869278 141.897690,141.201889 141.677307,140.329468 &#xA;&#x9;C141.677307,140.329468 141.481552,140.250351 141.302277,139.649078 &#xA;&#x9;C140.573898,138.359390 139.845505,137.069717 139.065918,135.235580 &#xA;&#x9;C138.766861,134.806366 138.467819,134.377167 138.039520,133.229004 &#xA;&#x9;C135.631058,128.498367 133.222610,123.767746 130.716675,118.338890 &#xA;&#x9;C128.386002,113.908089 126.055344,109.477295 123.589073,104.407005 &#xA;&#x9;C122.555557,102.497681 121.522049,100.588348 120.472336,98.650795 &#xA;&#x9;C120.472336,98.650795 120.440865,98.648407 120.326454,98.104485 &#xA;&#x9;C120.000824,97.663345 119.675201,97.222214 119.271324,96.138992 &#xA;&#x9;C118.862808,95.409531 118.454292,94.680069 117.931610,93.263718 &#xA;&#x9;C116.988930,91.680336 116.046249,90.096954 114.768127,87.988564 &#xA;&#x9;C114.202858,86.912376 113.637581,85.836182 112.927681,84.261246 &#xA;&#x9;C112.377419,83.113380 111.827148,81.965523 111.231873,80.760742 &#xA;&#x9;C111.231873,80.760742 111.178337,80.711746 111.128021,80.007950 &#xA;&#x9;C109.935051,77.590210 108.742081,75.172462 107.085014,71.814163 &#xA;&#x9;C105.467682,75.314240 104.367905,77.694283 103.047142,80.488167 &#xA;&#x9;C103.047142,80.488167 102.953880,80.947968 102.421028,81.322655 &#xA;&#x9;C101.688690,82.878166 100.956360,84.433685 99.894875,86.471260 &#xA;&#x9;C99.689476,87.008286 99.484070,87.545319 99.010658,88.497452 &#xA;&#x9;C99.010658,88.497452 98.914978,88.982208 98.467590,89.225159 &#xA;&#x9;C98.213089,89.837799 97.958580,90.450447 97.221382,91.622681 &#xA;&#x9;C96.430519,93.401733 95.639656,95.180794 94.356171,97.270363 &#xA;&#x9;C94.148094,97.811256 93.940018,98.352150 93.183197,99.350822 &#xA;&#x9;C93.036949,100.524353 92.890701,101.697876 92.171600,103.252571 &#xA;&#x9;C90.497276,106.175957 88.822945,109.099342 86.806755,112.493996 &#xA;&#x9;C86.580399,113.005920 86.354050,113.517845 85.864136,114.319351 &#xA;&#x9;C85.864136,114.319351 85.856804,114.710846 85.342300,115.102226 &#xA;&#x9;C84.921272,116.079910 84.500244,117.057587 83.601189,118.538307 &#xA;&#x9;C80.076073,125.395660 76.550957,132.253006 72.456589,139.454895 &#xA;&#x9;C70.567284,140.940063 68.677979,142.425232 66.104820,144.323257 &#xA;&#x9;C63.716362,144.552322 61.327904,144.781403 58.324219,144.720184 &#xA;&#x9;C57.215553,144.500763 56.106884,144.281342 54.960812,143.994232 &#xA;&#x9;C54.960812,143.994232 54.892075,144.029678 54.397663,143.584503 &#xA;&#x9;C51.380070,140.204834 48.362476,136.825165 45.355610,132.944702 &#xA;&#x9;C45.234161,132.635834 45.112713,132.326965 45.084690,131.080902 &#xA;&#x9;C44.982143,122.383926 44.879593,113.686943 44.925415,104.314003 &#xA;&#x9;C44.886894,103.854584 44.848373,103.395164 44.963100,102.044968 &#xA;&#x9;C44.905449,99.009880 44.847801,95.974792 44.933887,92.096092 &#xA;&#x9;C44.470825,85.883179 44.007763,79.670265 43.531994,73.286880 &#xA;&#x9;C40.492577,73.286880 37.450489,73.286880 34.166100,73.286880 &#xA;&#x9;C34.166100,82.388611 34.166100,91.170593 34.027027,100.796631 &#xA;&#x9;C34.067265,102.210678 34.107498,103.624733 34.015438,105.862381 &#xA;&#x9;C34.061592,107.248398 34.107750,108.634407 34.020054,110.945488 &#xA;&#x9;C34.134407,117.602325 34.248764,124.259163 34.274761,131.553329 &#xA;&#x9;C34.510876,132.370743 34.746990,133.188171 34.927532,134.771439 &#xA;&#x9;C36.512932,141.121292 39.444450,146.420029 46.483276,149.104080 &#xA;&#x9;C46.694675,149.392960 46.906071,149.681854 47.080284,150.691254 &#xA;&#x9;C56.060703,158.463959 72.743912,156.233170 81.719215,145.782257 &#xA;&#x9;C83.123779,143.511948 84.528343,141.241638 86.361862,138.426971 &#xA;&#x9;C88.948700,132.360031 91.535545,126.293076 94.080902,120.136070 &#xA;&#x9;C94.080902,120.136070 93.997459,120.188606 94.685150,120.051178 &#xA;&#x9;C94.988884,119.725433 95.292610,119.399681 96.004211,118.664879 &#xA;&#x9;C96.365425,117.788002 96.726639,116.911125 97.564873,115.613235 &#xA;&#x9;C98.058411,114.450554 98.551956,113.287865 99.563057,111.625710 &#xA;&#x9;C101.175148,108.103409 102.787247,104.581108 104.830650,100.541519 &#xA;&#x9;C104.883087,100.323227 104.935516,100.104935 105.397850,99.465866 &#xA;&#x9;C106.416306,99.043854 107.434761,98.621841 108.663773,98.856056 &#xA;&#x9;C109.454155,100.219193 110.244530,101.582336 111.092216,103.639633 &#xA;&#x9;C112.062584,105.436058 113.032944,107.232491 114.114021,109.724945 &#xA;&#x9;C115.613853,112.535622 117.113693,115.346298 118.780540,118.889366 &#xA;&#x9;C121.440125,123.960159 124.099709,129.030945 126.875496,134.778320 &#xA;&#x9;C127.606239,136.179199 128.336975,137.580093 129.158875,139.680786 &#xA;&#x9;C130.477966,142.104126 131.797043,144.527451 133.191055,147.615524 &#xA;&#x9;C134.130035,149.296844 135.069016,150.978165 136.107162,153.549133 &#xA;&#x9;C137.721695,154.105453 139.322723,155.090439 140.953186,155.141830 &#xA;&#x9;C147.106613,155.335831 153.286377,155.504593 159.423248,155.134613 &#xA;&#x9;C163.646790,154.880020 167.815826,153.721115 172.737747,152.958710 &#xA;&#x9;C175.205231,151.687637 177.672729,150.416565 180.649628,149.087387 &#xA;&#x9;C180.927063,148.897034 181.204498,148.706696 182.080597,148.209854 &#xA;&#x9;C184.348831,146.122192 186.617050,144.034515 189.447449,141.593903 &#xA;&#x9;C190.901596,139.393219 192.355728,137.192535 194.281403,134.449753 &#xA;&#x9;C198.771103,126.860802 199.575546,118.589867 198.930573,109.252853 &#xA;&#x9;C198.554611,107.510101 198.178650,105.767357 197.929138,103.364174 &#xA;&#x9;C197.664093,102.558540 197.399048,101.752914 197.096252,100.180687 &#xA;&#x9;C195.443954,97.068405 193.791672,93.956123 192.008331,90.312302 &#xA;&#x9;C191.658005,89.894135 191.307678,89.475967 191.006317,89.028854 &#xA;&#x9;C191.006317,89.028854 190.955139,89.041054 190.969589,88.417297 &#xA;&#x9;C190.585800,87.938034 190.202026,87.458778 189.700485,86.562546 &#xA;&#x9;C189.527710,86.302780 189.285980,86.158409 188.980850,86.032791 &#xA;&#x9;C188.980850,86.032791 188.884125,86.028412 188.761368,85.579659 &#xA;M142.004440,89.898849 &#xA;&#x9;C142.002625,92.599838 142.000809,95.300819 141.816727,98.226479 &#xA;&#x9;C141.699158,98.517960 141.759918,98.775246 142.004730,99.720482 &#xA;&#x9;C142.108932,100.850677 142.213120,101.980881 142.317322,103.111076 &#xA;&#x9;C142.999039,96.929153 143.118515,90.816559 142.955963,84.711479 &#xA;&#x9;C142.851898,80.802734 142.331558,76.905075 141.558212,73.698647 &#xA;&#x9;C141.705276,78.798630 141.852325,83.898613 142.004440,89.898849 &#xA;M106.006401,147.998093 &#xA;&#x9;C107.253036,147.651703 108.629898,147.534348 109.720810,146.914093 &#xA;&#x9;C112.501907,145.332886 113.167717,142.186966 111.497490,140.247482 &#xA;&#x9;C110.263512,138.814606 106.632729,138.177155 104.691429,138.886520 &#xA;&#x9;C100.666733,140.357178 101.134758,144.949051 106.006401,147.998093 &#xA;M46.010677,91.501312 &#xA;&#x9;C46.010677,98.037384 46.010677,104.573463 46.010677,111.109535 &#xA;&#x9;C46.217400,111.103073 46.424122,111.096611 46.630844,111.090157 &#xA;&#x9;C46.630844,99.090370 46.630844,87.090584 46.630844,75.090797 &#xA;&#x9;C46.424099,75.091705 46.217358,75.092621 46.010612,75.093529 &#xA;&#x9;C46.010612,80.229912 46.010612,85.366302 46.010677,91.501312 &#xA;z"/>
  <path fill="#2F77C1" stroke="none" d="&#xA;M224.906891,2.111153 &#xA;&#x9;C171.747650,2.078985 118.588402,2.043783 65.429161,2.016150 &#xA;&#x9;C44.265205,2.005148 23.101242,2.010893 1.468641,2.004507 &#xA;&#x9;C2.500000,1.666667 3.999812,1.042680 5.500027,1.041707 &#xA;&#x9;C78.999992,0.994067 152.500000,1.000000 225.726593,1.526436 &#xA;&#x9;C225.271088,2.072299 225.088989,2.091726 224.906891,2.111153 &#xA;z"/>
  <path fill="#2069C5" stroke="none" d="&#xA;M224.931732,2.568809 &#xA;&#x9;C225.088989,2.091726 225.271088,2.072299 225.726593,2.026436 &#xA;&#x9;C226.000000,76.666664 226.000000,151.333328 225.500000,226.000000 &#xA;&#x9;C224.985519,151.675491 224.971039,77.350975 224.931732,2.568809 &#xA;z"/>
  <path fill="#ADB3BD" stroke="none" d="&#xA;M175.077942,87.781311 &#xA;&#x9;C170.216354,86.328506 165.403122,84.674606 160.477097,83.489723 &#xA;&#x9;C156.863708,82.620575 154.857330,84.293991 154.917450,88.804825 &#xA;&#x9;C153.418610,89.595512 152.227661,89.943596 151.026382,89.983955 &#xA;&#x9;C148.861664,90.056679 146.690765,89.945145 144.522430,89.910576 &#xA;&#x9;C144.442291,85.267563 144.190842,80.616821 144.399475,75.986824 &#xA;&#x9;C144.453278,74.792374 145.902924,72.694557 146.795395,72.648750 &#xA;&#x9;C160.698166,71.935165 174.484314,72.001808 185.467133,82.834885 &#xA;&#x9;C184.274185,88.302177 181.754639,90.135590 176.902908,87.223328 &#xA;&#x9;C176.537781,87.004166 175.697403,87.576767 175.077942,87.781311 &#xA;z"/>
  <path fill="#D4DAE1" stroke="none" d="&#xA;M136.007996,152.659485 &#xA;&#x9;C135.069016,150.978165 134.130035,149.296844 133.370087,147.141357 &#xA;&#x9;C136.193253,144.528244 138.837402,142.389297 141.481552,140.250351 &#xA;&#x9;C141.481552,140.250351 141.677307,140.329468 141.566132,140.731720 &#xA;&#x9;C141.852463,141.773514 142.249939,142.413055 142.647430,143.052612 &#xA;&#x9;C153.506790,145.445282 164.185837,145.788879 174.887604,140.398529 &#xA;&#x9;C176.928009,140.744019 178.429260,140.954102 179.930496,141.164185 &#xA;&#x9;C182.434952,140.790955 184.362350,140.569138 186.264740,140.702911 &#xA;&#x9;C187.162964,140.766068 188.013275,141.510895 188.885284,141.946854 &#xA;&#x9;C186.617050,144.034515 184.348831,146.122192 181.662079,148.231232 &#xA;&#x9;C181.243561,148.252594 180.996185,147.997269 181.026550,147.738190 &#xA;&#x9;C180.964767,146.885086 180.872620,146.291046 180.780457,145.697021 &#xA;&#x9;C180.146866,146.092850 179.073029,146.415131 178.991470,146.903214 &#xA;&#x9;C178.890213,147.509140 179.609985,148.252289 180.015442,148.989258 &#xA;&#x9;C180.055740,149.042358 180.140228,149.145493 180.140228,149.145493 &#xA;&#x9;C177.672729,150.416565 175.205231,151.687637 172.473114,152.662476 &#xA;&#x9;C173.263412,151.379059 174.318359,150.391861 175.922241,148.890961 &#xA;&#x9;C173.106430,149.342453 171.054138,149.671539 168.838165,149.660049 &#xA;&#x9;C164.035919,148.545670 159.411896,147.294800 154.754028,147.152725 &#xA;&#x9;C151.187897,147.043961 147.579056,148.336121 143.600143,149.003830 &#xA;&#x9;C140.784775,148.664810 138.358490,148.327133 135.753860,147.964645 &#xA;&#x9;C135.853363,149.802826 135.930679,151.231155 136.007996,152.659485 &#xA;M141.500519,144.532761 &#xA;&#x9;C141.500519,144.532761 141.481079,144.483780 141.500519,144.532761 &#xA;z"/>
  <path fill="#F3F5F6" stroke="none" d="&#xA;M94.122375,120.226128 &#xA;&#x9;C91.535545,126.293076 88.948700,132.360031 85.830688,138.550323 &#xA;&#x9;C81.097870,135.715530 77.044006,136.911423 73.025833,139.110352 &#xA;&#x9;C76.550957,132.253006 80.076073,125.395660 84.114349,118.390671 &#xA;&#x9;C88.582367,118.299423 86.014694,116.085800 85.856804,114.710846 &#xA;&#x9;C85.856804,114.710846 85.864136,114.319351 86.302094,114.334946 &#xA;&#x9;C90.129051,115.142807 92.512970,117.197899 94.122375,120.226128 &#xA;z"/>
  <path fill="#F3F6F6" stroke="none" d="&#xA;M198.801010,110.026741 &#xA;&#x9;C199.575546,118.589867 198.771103,126.860802 193.621552,134.719772 &#xA;&#x9;C189.569214,134.269547 185.486603,136.927902 182.768219,132.907608 &#xA;&#x9;C186.024414,126.995934 188.354462,120.829544 188.323532,113.736938 &#xA;&#x9;C191.636703,113.551857 194.616043,113.551857 197.610641,113.551857 &#xA;&#x9;C197.986069,112.440086 198.393539,111.233414 198.801010,110.026741 &#xA;z"/>
  <path fill="#B7B8BE" stroke="none" d="&#xA;M34.166100,99.952576 &#xA;&#x9;C34.166100,91.170593 34.166100,82.388611 34.166100,73.286880 &#xA;&#x9;C37.450489,73.286880 40.492577,73.286880 43.531994,73.286880 &#xA;&#x9;C44.007763,79.670265 44.470825,85.883179 44.612808,92.359726 &#xA;&#x9;C41.574150,91.860046 38.856571,91.096725 35.522202,90.160164 &#xA;&#x9;C35.351276,92.622147 35.197590,94.835869 35.012932,97.358231 &#xA;&#x9;C34.710003,98.428772 34.438049,99.190674 34.166100,99.952576 &#xA;z"/>
  <path fill="#F4F7F7" stroke="none" d="&#xA;M130.814148,119.037125 &#xA;&#x9;C133.222610,123.767746 135.631058,128.498367 137.785934,133.510773 &#xA;&#x9;C136.049789,132.612488 134.567245,131.432449 133.243851,130.379074 &#xA;&#x9;C130.970840,131.683960 128.865067,132.892853 126.759285,134.101746 &#xA;&#x9;C124.099709,129.030945 121.440125,123.960159 118.951706,118.295624 &#xA;&#x9;C119.957634,116.611931 120.792404,115.521973 121.081268,115.144798 &#xA;&#x9;C124.767548,116.618996 127.790848,117.828056 130.814148,119.037125 &#xA;z"/>
  <path fill="#CDD2D5" stroke="none" d="&#xA;M169.001831,150.000610 &#xA;&#x9;C171.054138,149.671539 173.106430,149.342453 175.922241,148.890961 &#xA;&#x9;C174.318359,150.391861 173.263412,151.379059 172.108841,152.666321 &#xA;&#x9;C167.815826,153.721115 163.646790,154.880020 159.423248,155.134613 &#xA;&#x9;C153.286377,155.504593 147.106613,155.335831 140.953186,155.141830 &#xA;&#x9;C139.322723,155.090439 137.721695,154.105453 136.057587,153.104309 &#xA;&#x9;C135.930679,151.231155 135.853363,149.802826 135.753860,147.964645 &#xA;&#x9;C138.358490,148.327133 140.784775,148.664810 143.842300,149.308380 &#xA;&#x9;C146.346786,150.075821 148.228836,150.960510 150.091721,150.921890 &#xA;&#x9;C156.398758,150.791168 162.698990,150.333405 169.001831,150.000610 &#xA;z"/>
  <path fill="#F7F7F7" stroke="none" d="&#xA;M44.991264,132.018097 &#xA;&#x9;C45.112713,132.326965 45.234161,132.635834 45.199669,133.449615 &#xA;&#x9;C41.697258,135.365646 38.354782,137.563293 34.983109,134.005585 &#xA;&#x9;C34.746990,133.188171 34.510876,132.370743 34.476383,130.876831 &#xA;&#x9;C34.826893,127.738098 34.827785,125.255768 35.158588,122.818222 &#xA;&#x9;C35.683685,118.948997 37.076035,115.971535 42.255547,118.096275 &#xA;&#x9;C42.535870,116.171341 42.768028,114.577141 43.224762,113.331482 &#xA;&#x9;C43.638626,115.612946 43.853565,117.543762 44.011917,119.479218 &#xA;&#x9;C44.353767,123.657585 44.666576,127.838326 44.991264,132.018097 &#xA;M41.687870,130.280151 &#xA;&#x9;C41.551987,130.389923 41.416100,130.499695 41.280212,130.609467 &#xA;&#x9;C41.435040,130.573929 41.589870,130.538391 41.687870,130.280151 &#xA;z"/>
  <path fill="#C2C6CB" stroke="none" d="&#xA;M115.103569,88.513580 &#xA;&#x9;C116.046249,90.096954 116.988930,91.680336 117.891708,93.908798 &#xA;&#x9;C114.718948,95.769188 111.586082,96.984512 108.453209,98.199837 &#xA;&#x9;C107.434761,98.621841 106.416306,99.043854 105.097107,99.348381 &#xA;&#x9;C101.480507,98.473877 98.164642,97.716866 94.848785,96.959846 &#xA;&#x9;C95.639656,95.180794 96.430519,93.401733 97.749695,91.361176 &#xA;&#x9;C100.487175,90.859612 102.800117,90.103058 104.877159,90.520462 &#xA;&#x9;C107.085167,90.964172 112.946930,90.359657 115.103569,88.513580 &#xA;z"/>
  <path fill="#E0E6EA" stroke="none" d="&#xA;M34.955322,134.388519 &#xA;&#x9;C38.354782,137.563293 41.697258,135.365646 45.194305,133.700012 &#xA;&#x9;C48.362476,136.825165 51.380070,140.204834 54.280525,143.795532 &#xA;&#x9;C51.778385,144.666382 49.393383,145.326187 46.902451,145.865829 &#xA;&#x9;C46.586468,145.739853 46.376419,145.734039 46.166374,145.728226 &#xA;&#x9;C46.439190,145.823608 46.712006,145.919006 47.062225,146.243515 &#xA;&#x9;C46.749641,147.285965 46.359661,148.099289 45.969681,148.912613 &#xA;&#x9;C39.444450,146.420029 36.512932,141.121292 34.955322,134.388519 &#xA;z"/>
  <path fill="#CAD1D8" stroke="none" d="&#xA;M81.149246,146.135742 &#xA;&#x9;C72.743912,156.233170 56.060703,158.463959 47.399681,150.396881 &#xA;&#x9;C48.812393,149.734604 49.905712,149.366684 51.376274,149.080505 &#xA;&#x9;C56.857868,151.095749 61.957699,152.610413 67.414703,148.998688 &#xA;&#x9;C69.868378,148.642090 71.909538,148.284454 74.270569,147.846466 &#xA;&#x9;C76.776718,147.222656 78.962982,146.679199 81.149246,146.135742 &#xA;z"/>
  <path fill="#DFE4E8" stroke="none" d="&#xA;M81.434235,145.959000 &#xA;&#x9;C78.962982,146.679199 76.776718,147.222656 74.058151,147.586853 &#xA;&#x9;C71.280128,146.241852 69.034393,145.076126 66.788666,143.910385 &#xA;&#x9;C68.677979,142.425232 70.567284,140.940063 72.741211,139.282623 &#xA;&#x9;C77.044006,136.911423 81.097870,135.715530 85.616219,138.822510 &#xA;&#x9;C84.528343,141.241638 83.123779,143.511948 81.434235,145.959000 &#xA;z"/>
  <path fill="#E5EAEE" stroke="none" d="&#xA;M130.765411,118.688004 &#xA;&#x9;C127.790848,117.828056 124.767548,116.618996 121.081268,115.144798 &#xA;&#x9;C120.792404,115.521973 119.957634,116.611931 118.868202,117.929428 &#xA;&#x9;C117.113693,115.346298 115.613853,112.535622 114.284988,109.261978 &#xA;&#x9;C118.208351,109.185333 121.921326,109.474304 123.724670,105.046494 &#xA;&#x9;C126.055344,109.477295 128.386002,113.908089 130.765411,118.688004 &#xA;z"/>
  <path fill="#E4E6E7" stroke="none" d="&#xA;M198.865784,109.639801 &#xA;&#x9;C198.393539,111.233414 197.986069,112.440086 197.610641,113.551857 &#xA;&#x9;C194.616043,113.551857 191.636703,113.551857 188.400787,113.317909 &#xA;&#x9;C188.022278,111.451218 187.900314,109.818466 187.921936,107.425995 &#xA;&#x9;C189.717056,103.275085 192.139282,103.096657 195.236450,104.720360 &#xA;&#x9;C195.812057,105.022118 196.933273,104.283218 197.802673,104.024605 &#xA;&#x9;C198.178650,105.767357 198.554611,107.510101 198.865784,109.639801 &#xA;z"/>
  <path fill="#BBBFC2" stroke="none" d="&#xA;M175.305115,88.028374 &#xA;&#x9;C175.697403,87.576767 176.537781,87.004166 176.902908,87.223328 &#xA;&#x9;C181.754639,90.135590 184.274185,88.302177 185.610443,83.135040 &#xA;&#x9;C186.498810,83.539803 187.100922,84.064529 187.965149,85.032959 &#xA;&#x9;C188.410721,85.702843 188.629669,85.886757 188.884125,86.028412 &#xA;&#x9;C188.884125,86.028412 188.980850,86.032791 189.090042,86.249641 &#xA;&#x9;C189.372620,86.677277 189.578949,86.848289 189.818253,86.979523 &#xA;&#x9;C190.202026,87.458778 190.585800,87.938034 190.921829,88.763657 &#xA;&#x9;C190.874069,89.110023 190.957367,89.057800 190.957367,89.057800 &#xA;&#x9;C191.307678,89.475967 191.658005,89.894135 192.009338,90.920639 &#xA;&#x9;C191.057480,92.490273 190.196167,94.130440 189.132950,94.273857 &#xA;&#x9;C186.801605,94.588318 184.367966,94.144585 181.976105,94.010445 &#xA;&#x9;C181.976105,94.010445 182.006409,93.996605 181.872894,93.831970 &#xA;&#x9;C181.561432,93.430611 181.369049,93.206223 181.162277,92.994179 &#xA;&#x9;C179.285614,91.421265 177.408951,89.848351 175.305115,88.028374 &#xA;z"/>
  <path fill="#A9B1BA" stroke="none" d="&#xA;M111.276886,80.817665 &#xA;&#x9;C111.827148,81.965523 112.377419,83.113380 112.868271,84.845444 &#xA;&#x9;C112.009651,85.902382 110.694801,86.948044 110.488312,86.762192 &#xA;&#x9;C107.217224,83.818184 103.605858,86.440369 100.224030,85.989197 &#xA;&#x9;C100.956360,84.433685 101.688690,82.878166 102.811172,81.202545 &#xA;&#x9;C103.336029,81.032608 103.470741,80.982780 103.605446,80.932961 &#xA;&#x9;C103.493004,80.646744 103.380562,80.360535 103.268127,80.074318 &#xA;&#x9;C104.367905,77.694283 105.467682,75.314240 107.085014,71.814163 &#xA;&#x9;C108.742081,75.172462 109.935051,77.590210 111.096245,80.425262 &#xA;&#x9;C111.064468,80.842575 111.056946,81.040672 111.056946,81.040672 &#xA;&#x9;C111.056946,81.040672 111.276878,80.817665 111.276886,80.817665 &#xA;z"/>
  <path fill="#EBEEF1" stroke="none" d="&#xA;M182.484528,133.068970 &#xA;&#x9;C185.486603,136.927902 189.569214,134.269547 193.385773,134.990814 &#xA;&#x9;C192.355728,137.192535 190.901596,139.393219 189.166367,141.770386 &#xA;&#x9;C188.013275,141.510895 187.162964,140.766068 186.264740,140.702911 &#xA;&#x9;C184.362350,140.569138 182.434952,140.790955 179.930496,141.164185 &#xA;&#x9;C178.429260,140.954102 176.928009,140.744019 175.243301,140.322739 &#xA;&#x9;C177.440155,137.817810 179.820496,135.524063 182.484528,133.068970 &#xA;z"/>
  <path fill="#DEE6EF" stroke="none" d="&#xA;M105.648018,147.993103 &#xA;&#x9;C101.134758,144.949051 100.666733,140.357178 104.691429,138.886520 &#xA;&#x9;C106.632729,138.177155 110.263512,138.814606 111.497490,140.247482 &#xA;&#x9;C113.167717,142.186966 112.501907,145.332886 109.720810,146.914093 &#xA;&#x9;C108.629898,147.534348 107.253036,147.651703 105.648018,147.993103 &#xA;z"/>
  <path fill="#E5E5EC" stroke="none" d="&#xA;M87.148621,112.022728 &#xA;&#x9;C88.822945,109.099342 90.497276,106.175957 92.764679,103.203568 &#xA;&#x9;C97.009842,103.855705 96.007874,106.649025 95.897751,109.118729 &#xA;&#x9;C95.705582,109.543900 95.793297,109.794258 96.266815,109.731445 &#xA;&#x9;C97.196266,108.213974 97.931305,106.951942 99.045486,105.038933 &#xA;&#x9;C99.045486,108.073738 99.045486,110.099457 99.045486,112.125175 &#xA;&#x9;C98.551956,113.287865 98.058411,114.450554 97.072540,115.727905 &#xA;&#x9;C94.626511,111.630653 90.569923,112.610985 87.148621,112.022728 &#xA;z"/>
  <path fill="#DEDFE0" stroke="none" d="&#xA;M66.446747,144.116821 &#xA;&#x9;C69.034393,145.076126 71.280128,146.241852 73.738281,147.667206 &#xA;&#x9;C71.909538,148.284454 69.868378,148.642090 67.132996,148.741409 &#xA;&#x9;C61.971111,147.833969 57.513031,147.084457 53.024292,146.656326 &#xA;&#x9;C52.429096,146.599548 51.677952,148.177765 50.999027,148.998779 &#xA;&#x9;C49.905712,149.366684 48.812393,149.734604 47.418270,150.036621 &#xA;&#x9;C46.906071,149.681854 46.694675,149.392960 46.226479,149.008347 &#xA;&#x9;C46.359661,148.099289 46.749641,147.285965 47.069153,146.236877 &#xA;&#x9;C46.998684,146.001099 47.008385,145.986008 47.008385,145.986008 &#xA;&#x9;C49.393383,145.326187 51.778385,144.666382 54.527733,144.018127 &#xA;&#x9;C54.892075,144.029678 54.960812,143.994232 55.264202,144.218292 &#xA;&#x9;C56.691544,144.631714 57.815495,144.821091 58.939445,145.010468 &#xA;&#x9;C61.327904,144.781403 63.716362,144.552322 66.446747,144.116821 &#xA;z"/>
  <path fill="#C3CBD2" stroke="none" d="&#xA;M182.104126,94.326210 &#xA;&#x9;C184.367966,94.144585 186.801605,94.588318 189.132950,94.273857 &#xA;&#x9;C190.196167,94.130440 191.057480,92.490273 192.074875,91.186401 &#xA;&#x9;C193.791672,93.956123 195.443954,97.068405 196.785309,100.480911 &#xA;&#x9;C192.993118,100.849983 189.511856,100.918816 186.030594,100.987656 &#xA;&#x9;C184.764435,98.872429 183.498291,96.757202 182.104126,94.326210 &#xA;z"/>
  <path fill="#E2E7E9" stroke="none" d="&#xA;M45.037979,131.549500 &#xA;&#x9;C44.666576,127.838326 44.353767,123.657585 44.011917,119.479218 &#xA;&#x9;C43.853565,117.543762 43.638626,115.612946 43.225254,113.013939 &#xA;&#x9;C42.946552,111.433922 42.891933,110.519989 42.898029,110.621994 &#xA;&#x9;C39.730312,110.404060 36.942108,110.212242 34.153908,110.020424 &#xA;&#x9;C34.107750,108.634407 34.061592,107.248398 34.480011,105.440109 &#xA;&#x9;C37.065510,105.050186 40.410339,105.918762 41.070278,104.952881 &#xA;&#x9;C42.818218,102.394600 43.614075,104.853546 44.777046,104.989967 &#xA;&#x9;C44.879593,113.686943 44.982143,122.383926 45.037979,131.549500 &#xA;z"/>
  <path fill="#EBEEF1" stroke="none" d="&#xA;M34.086979,110.482956 &#xA;&#x9;C36.942108,110.212242 39.730312,110.404060 42.898029,110.621994 &#xA;&#x9;C42.891933,110.519989 42.946552,111.433922 43.000679,112.665398 &#xA;&#x9;C42.768028,114.577141 42.535870,116.171341 42.255547,118.096275 &#xA;&#x9;C37.076035,115.971535 35.683685,118.948997 35.158588,122.818222 &#xA;&#x9;C34.827785,125.255768 34.826893,127.738098 34.520561,130.558167 &#xA;&#x9;C34.248764,124.259163 34.134407,117.602325 34.086979,110.482956 &#xA;z"/>
  <path fill="#D8DCE1" stroke="none" d="&#xA;M123.656876,104.726746 &#xA;&#x9;C121.921326,109.474304 118.208351,109.185333 114.229630,108.913971 &#xA;&#x9;C113.032944,107.232491 112.062584,105.436058 111.267693,103.023834 &#xA;&#x9;C112.613701,102.068184 114.143494,101.082008 114.893425,101.498856 &#xA;&#x9;C118.392761,103.443924 119.658928,101.655167 120.488533,98.679024 &#xA;&#x9;C121.522049,100.588348 122.555557,102.497681 123.656876,104.726746 &#xA;M115.496033,106.538300 &#xA;&#x9;C115.496033,106.538300 115.477501,106.491043 115.496033,106.538300 &#xA;z"/>
  <path fill="#C4C5C8" stroke="none" d="&#xA;M144.443970,90.352753 &#xA;&#x9;C146.690765,89.945145 148.861664,90.056679 151.026382,89.983955 &#xA;&#x9;C152.227661,89.943596 153.418610,89.595512 154.798691,89.191711 &#xA;&#x9;C155.038574,91.377892 155.093994,93.758492 154.612122,96.570724 &#xA;&#x9;C150.913742,97.007111 147.752609,97.011879 144.591492,97.016647 &#xA;&#x9;C144.516159,94.942734 144.440826,92.868835 144.443970,90.352753 &#xA;z"/>
  <path fill="#B5BBC1" stroke="none" d="&#xA;M100.059448,86.230225 &#xA;&#x9;C103.605858,86.440369 107.217224,83.818184 110.488312,86.762192 &#xA;&#x9;C110.694801,86.948044 112.009651,85.902382 112.940590,85.094818 &#xA;&#x9;C113.637581,85.836182 114.202858,86.912376 114.935852,88.251068 &#xA;&#x9;C112.946930,90.359657 107.085167,90.964172 104.877159,90.520462 &#xA;&#x9;C102.800117,90.103058 100.487175,90.859612 97.991043,91.081390 &#xA;&#x9;C97.958580,90.450447 98.213089,89.837799 98.794594,89.017624 &#xA;&#x9;C99.319748,88.604752 99.372108,88.362175 99.278671,88.082352 &#xA;&#x9;C99.484070,87.545319 99.689476,87.008286 100.059448,86.230225 &#xA;z"/>
  <path fill="#E3E7EA" stroke="none" d="&#xA;M141.391907,139.949707 &#xA;&#x9;C138.837402,142.389297 136.193253,144.528244 133.332611,146.808990 &#xA;&#x9;C131.797043,144.527451 130.477966,142.104126 129.426697,139.239532 &#xA;&#x9;C132.835388,137.792191 135.976257,136.786118 139.117126,135.780029 &#xA;&#x9;C139.845505,137.069717 140.573898,138.359390 141.391907,139.949707 &#xA;z"/>
  <path fill="#C6C9CC" stroke="none" d="&#xA;M35.043900,97.049591 &#xA;&#x9;C35.197590,94.835869 35.351276,92.622147 35.522202,90.160164 &#xA;&#x9;C38.856571,91.096725 41.574150,91.860046 44.540939,92.781532 &#xA;&#x9;C44.847801,95.974792 44.905449,99.009880 44.717991,102.192307 &#xA;&#x9;C44.115993,100.845970 43.759102,99.352295 43.715836,99.171204 &#xA;&#x9;C40.211357,98.313820 37.627628,97.681702 35.043900,97.049591 &#xA;z"/>
  <path fill="#D6D6D7" stroke="none" d="&#xA;M35.012932,97.358231 &#xA;&#x9;C37.627628,97.681702 40.211357,98.313820 43.715836,99.171204 &#xA;&#x9;C43.759102,99.352295 44.115993,100.845970 44.641365,102.637695 &#xA;&#x9;C44.848373,103.395164 44.886894,103.854584 44.851231,104.651985 &#xA;&#x9;C43.614075,104.853546 42.818218,102.394600 41.070278,104.952881 &#xA;&#x9;C40.410339,105.918762 37.065510,105.050186 34.546158,105.028313 &#xA;&#x9;C34.107498,103.624733 34.067265,102.210678 34.096561,100.374603 &#xA;&#x9;C34.438049,99.190674 34.710003,98.428772 35.012932,97.358231 &#xA;z"/>
  <path fill="#EEF1F3" stroke="none" d="&#xA;M139.091522,135.507812 &#xA;&#x9;C135.976257,136.786118 132.835388,137.792191 129.381119,138.889618 &#xA;&#x9;C128.336975,137.580093 127.606239,136.179199 126.817390,134.440033 &#xA;&#x9;C128.865067,132.892853 130.970840,131.683960 133.243851,130.379074 &#xA;&#x9;C134.567245,131.432449 136.049789,132.612488 137.850555,133.870239 &#xA;&#x9;C138.467819,134.377167 138.766861,134.806366 139.091522,135.507812 &#xA;z"/>
  <path fill="#DBDEE0" stroke="none" d="&#xA;M99.304276,111.875443 &#xA;&#x9;C99.045486,110.099457 99.045486,108.073738 99.045486,105.038933 &#xA;&#x9;C97.931305,106.951942 97.196266,108.213974 96.244286,109.485229 &#xA;&#x9;C96.027344,109.494453 95.986252,109.001640 95.986252,109.001640 &#xA;&#x9;C96.007874,106.649025 97.009842,103.855705 93.051102,103.012985 &#xA;&#x9;C92.890701,101.697876 93.036949,100.524353 93.818192,99.216217 &#xA;&#x9;C97.488121,101.151436 100.630775,102.679436 104.399338,101.058807 &#xA;&#x9;C102.787247,104.581108 101.175148,108.103409 99.304276,111.875443 &#xA;z"/>
  <path fill="#E5EAEE" stroke="none" d="&#xA;M154.918472,101.079063 &#xA;&#x9;C154.918472,105.164612 154.918472,109.250160 154.918472,113.946945 &#xA;&#x9;C151.782578,113.946945 148.720245,113.946945 145.304413,113.406525 &#xA;&#x9;C145.024521,111.578018 145.098114,110.289940 145.603088,109.002083 &#xA;&#x9;C148.976135,108.241821 153.807404,111.251625 154.006775,104.614746 &#xA;&#x9;C154.038223,103.172020 154.064590,102.123863 154.297836,101.076477 &#xA;&#x9;C154.504715,101.077255 154.918472,101.079063 154.918472,101.079063 &#xA;z"/>
  <path fill="#CACED5" stroke="none" d="&#xA;M120.480438,98.664909 &#xA;&#x9;C119.658928,101.655167 118.392761,103.443924 114.893425,101.498856 &#xA;&#x9;C114.143494,101.082008 112.613701,102.068184 111.239044,102.676750 &#xA;&#x9;C110.244530,101.582336 109.454155,100.219193 108.558487,98.527946 &#xA;&#x9;C111.586082,96.984512 114.718948,95.769188 117.948792,94.252243 &#xA;&#x9;C118.454292,94.680069 118.862808,95.409531 119.137619,96.674683 &#xA;&#x9;C119.482903,97.689720 119.961884,98.169060 120.440865,98.648407 &#xA;&#x9;C120.440865,98.648407 120.472336,98.650795 120.480438,98.664909 &#xA;z"/>
  <path fill="#D3D7DC" stroke="none" d="&#xA;M186.063385,101.357498 &#xA;&#x9;C189.511856,100.918816 192.993118,100.849983 196.804184,100.864212 &#xA;&#x9;C197.399048,101.752914 197.664093,102.558540 197.865906,103.694389 &#xA;&#x9;C196.933273,104.283218 195.812057,105.022118 195.236450,104.720360 &#xA;&#x9;C192.139282,103.096657 189.717056,103.275085 187.943604,107.018677 &#xA;&#x9;C187.246506,105.489838 186.671356,103.608589 186.063385,101.357498 &#xA;z"/>
  <path fill="#D3D1D2" stroke="none" d="&#xA;M155.018250,100.679314 &#xA;&#x9;C154.918472,101.079063 154.504715,101.077255 153.850403,101.055710 &#xA;&#x9;C150.339508,101.021706 147.482910,101.009239 144.626312,100.996773 &#xA;&#x9;C144.540726,99.930252 144.455124,98.863724 144.480499,97.406921 &#xA;&#x9;C147.752609,97.011879 150.913742,97.007111 154.519470,97.008118 &#xA;&#x9;C155.015381,98.102448 155.066711,99.191010 155.018250,100.679314 &#xA;z"/>
  <path fill="#EBEEF1" stroke="none" d="&#xA;M86.977692,112.258362 &#xA;&#x9;C90.569923,112.610985 94.626511,111.630653 96.834030,115.938416 &#xA;&#x9;C96.726639,116.911125 96.365425,117.788002 95.516693,119.029915 &#xA;&#x9;C94.685272,119.659508 94.341370,119.924057 93.997459,120.188606 &#xA;&#x9;C93.997459,120.188606 94.080902,120.136070 94.101639,120.181099 &#xA;&#x9;C92.512970,117.197899 90.129051,115.142807 86.433876,114.190155 &#xA;&#x9;C86.354050,113.517845 86.580399,113.005920 86.977692,112.258362 &#xA;z"/>
  <path fill="#CDD2D5" stroke="none" d="&#xA;M104.614998,100.800163 &#xA;&#x9;C100.630775,102.679436 97.488121,101.151436 94.092560,98.987320 &#xA;&#x9;C93.940018,98.352150 94.148094,97.811256 94.602478,97.115105 &#xA;&#x9;C98.164642,97.716866 101.480507,98.473877 104.892159,99.558769 &#xA;&#x9;C104.935516,100.104935 104.883087,100.323227 104.614998,100.800163 &#xA;z"/>
  <path fill="#0053C4" stroke="none" d="&#xA;M46.010643,91.001999 &#xA;&#x9;C46.010612,85.366302 46.010612,80.229912 46.010612,75.093529 &#xA;&#x9;C46.217358,75.092621 46.424099,75.091705 46.630844,75.090797 &#xA;&#x9;C46.630844,87.090584 46.630844,99.090370 46.630844,111.090157 &#xA;&#x9;C46.424122,111.096611 46.217400,111.103073 46.010677,111.109535 &#xA;&#x9;C46.010677,104.573463 46.010677,98.037384 46.010643,91.001999 &#xA;z"/>
  <path fill="#D8D9DB" stroke="none" d="&#xA;M144.512390,101.378448 &#xA;&#x9;C147.482910,101.009239 150.339508,101.021706 153.643524,101.054932 &#xA;&#x9;C154.064590,102.123863 154.038223,103.172020 153.561981,104.612244 &#xA;&#x9;C150.476822,105.000862 147.841537,104.997421 145.014282,104.956078 &#xA;&#x9;C144.822281,104.918182 144.431503,104.939903 144.431503,104.939903 &#xA;&#x9;C144.420486,103.879982 144.409470,102.820053 144.512390,101.378448 &#xA;z"/>
  <path fill="#0053C4" stroke="none" d="&#xA;M141.997833,73.002441 &#xA;&#x9;C142.331558,76.905075 142.851898,80.802734 142.955963,84.711479 &#xA;&#x9;C143.118515,90.816559 142.999039,96.929153 142.317322,103.111076 &#xA;&#x9;C142.213120,101.980881 142.108932,100.850677 142.002075,99.110291 &#xA;&#x9;C141.999420,98.500092 141.998993,98.001808 141.998993,98.001808 &#xA;&#x9;C142.000809,95.300819 142.002625,92.599838 142.002869,88.982025 &#xA;&#x9;C142.000137,83.044289 141.998993,78.023361 141.997833,73.002441 &#xA;z"/>
  <path fill="#0355AB" stroke="none" d="&#xA;M141.778015,73.350540 &#xA;&#x9;C141.998993,78.023361 142.000137,83.044289 142.000336,88.531906 &#xA;&#x9;C141.852325,83.898613 141.705276,78.798630 141.778015,73.350540 &#xA;z"/>
  <path fill="#ADB3BD" stroke="none" d="&#xA;M144.305176,105.342751 &#xA;&#x9;C144.431503,104.939903 144.822281,104.918182 144.971283,105.355690 &#xA;&#x9;C145.137436,106.862755 145.154572,107.932304 145.171722,109.001862 &#xA;&#x9;C145.098114,110.289940 145.024521,111.578018 144.858917,113.232445 &#xA;&#x9;C144.570892,110.981064 144.374878,108.363327 144.305176,105.342751 &#xA;z"/>
  <path fill="#EBEEF1" stroke="none" d="&#xA;M85.599548,114.906540 &#xA;&#x9;C86.014694,116.085800 88.582367,118.299423 84.353363,118.139145 &#xA;&#x9;C84.500244,117.057587 84.921272,116.079910 85.599548,114.906540 &#xA;z"/>
  <path fill="#E0E6EA" stroke="none" d="&#xA;M58.631832,144.865326 &#xA;&#x9;C57.815495,144.821091 56.691544,144.631714 55.282906,144.252136 &#xA;&#x9;C56.106884,144.281342 57.215553,144.500763 58.631832,144.865326 &#xA;z"/>
  <path fill="#E3E7EA" stroke="none" d="&#xA;M142.543304,142.794632 &#xA;&#x9;C142.249939,142.413055 141.852463,141.773514 141.540955,140.834229 &#xA;&#x9;C141.897690,141.201889 142.168427,141.869278 142.543304,142.794632 &#xA;z"/>
  <path fill="#D8DCE1" stroke="none" d="&#xA;M120.383659,98.376450 &#xA;&#x9;C119.961884,98.169060 119.482903,97.689720 119.176743,96.995728 &#xA;&#x9;C119.675201,97.222214 120.000824,97.663345 120.383659,98.376450 &#xA;z"/>
  <path fill="#B5BBC1" stroke="none" d="&#xA;M103.157639,80.281242 &#xA;&#x9;C103.380562,80.360535 103.493004,80.646744 103.605446,80.932961 &#xA;&#x9;C103.470741,80.982780 103.336029,81.032608 103.077606,81.015198 &#xA;&#x9;C102.953880,80.947968 103.047142,80.488167 103.157639,80.281242 &#xA;z"/>
  <path fill="#C2C6CB" stroke="none" d="&#xA;M99.144669,88.289902 &#xA;&#x9;C99.372108,88.362175 99.319748,88.604752 99.018288,88.896149 &#xA;&#x9;C98.914978,88.982208 99.010658,88.497452 99.144669,88.289902 &#xA;z"/>
  <path fill="#ADB3BD" stroke="none" d="&#xA;M189.759369,86.771027 &#xA;&#x9;C189.578949,86.848289 189.372620,86.677277 189.087250,86.297974 &#xA;&#x9;C189.285980,86.158409 189.527710,86.302780 189.759369,86.771027 &#xA;z"/>
  <path fill="#D4DAE1" stroke="none" d="&#xA;M181.362747,148.384476 &#xA;&#x9;C181.204498,148.706696 180.927063,148.897034 180.394928,149.116440 &#xA;&#x9;C180.140228,149.145493 180.055740,149.042358 180.163818,148.810516 &#xA;&#x9;C180.486862,148.351898 180.728302,148.158112 180.996185,147.997269 &#xA;&#x9;C180.996185,147.997269 181.243561,148.252594 181.362747,148.384476 &#xA;z"/>
  <path fill="#ADB3BD" stroke="none" d="&#xA;M188.822754,85.804031 &#xA;&#x9;C188.629669,85.886757 188.410721,85.702843 188.109329,85.296753 &#xA;&#x9;C188.330414,85.134079 188.587082,85.288353 188.822754,85.804031 &#xA;z"/>
  <path fill="#C3CBD2" stroke="none" d="&#xA;M181.206787,93.229462 &#xA;&#x9;C181.369049,93.206223 181.561432,93.430611 181.868561,93.848099 &#xA;&#x9;C181.664734,93.952217 181.415909,93.764183 181.206787,93.229462 &#xA;z"/>
  <path fill="#0355AB" stroke="none" d="&#xA;M141.907867,98.114143 &#xA;&#x9;C141.998993,98.001808 141.999420,98.500092 141.999237,98.749214 &#xA;&#x9;C141.759918,98.775246 141.699158,98.517960 141.907867,98.114143 &#xA;z"/>
  <path fill="#F3F5F6" stroke="none" d="&#xA;M94.341309,120.119888 &#xA;&#x9;C94.341370,119.924057 94.685272,119.659508 95.312759,119.234444 &#xA;&#x9;C95.292610,119.399681 94.988884,119.725433 94.341309,120.119888 &#xA;z"/>
  <path fill="#D8D9DB" stroke="none" d="&#xA;M168.838165,149.660065 &#xA;&#x9;C162.698990,150.333405 156.398758,150.791168 150.091721,150.921890 &#xA;&#x9;C148.228836,150.960510 146.346786,150.075821 144.231369,149.309692 &#xA;&#x9;C147.579056,148.336121 151.187897,147.043961 154.754028,147.152725 &#xA;&#x9;C159.411896,147.294800 164.035919,148.545670 168.838165,149.660065 &#xA;z"/>
  <path fill="#CDD2D5" stroke="none" d="&#xA;M181.026550,147.738190 &#xA;&#x9;C180.728302,148.158112 180.486862,148.351898 180.123505,148.757416 &#xA;&#x9;C179.609985,148.252289 178.890213,147.509140 178.991470,146.903214 &#xA;&#x9;C179.073029,146.415131 180.146866,146.092850 180.780457,145.697021 &#xA;&#x9;C180.872620,146.291046 180.964767,146.885086 181.026550,147.738190 &#xA;z"/>
  <path fill="#E3E7EA" stroke="none" d="&#xA;M141.490799,144.508270 &#xA;&#x9;C141.481079,144.483780 141.500519,144.532761 141.490799,144.508270 &#xA;z"/>
  <path fill="#E0E6EA" stroke="none" d="&#xA;M41.716286,130.391510 &#xA;&#x9;C41.589870,130.538391 41.435040,130.573929 41.280212,130.609467 &#xA;&#x9;C41.416100,130.499695 41.551987,130.389923 41.716286,130.391510 &#xA;z"/>
  <path fill="#DEDFE0" stroke="none" d="&#xA;M46.991753,146.007751 &#xA;&#x9;C46.712006,145.919006 46.439190,145.823608 46.166374,145.728226 &#xA;&#x9;C46.376419,145.734039 46.586468,145.739853 46.902451,145.865829 &#xA;&#x9;C47.008385,145.986008 46.998684,146.001099 46.991753,146.007751 &#xA;z"/>
  <path fill="#D8D9DB" stroke="none" d="&#xA;M51.376274,149.080505 &#xA;&#x9;C51.677952,148.177765 52.429096,146.599548 53.024292,146.656326 &#xA;&#x9;C57.513031,147.084457 61.971111,147.833969 66.720482,148.740387 &#xA;&#x9;C61.957699,152.610413 56.857868,151.095749 51.376274,149.080505 &#xA;z"/>
  <path fill="#C3CBD2" stroke="none" d="&#xA;M190.981842,89.043327 &#xA;&#x9;C190.957367,89.057800 190.874069,89.110023 190.914612,89.075539 &#xA;&#x9;C190.955139,89.041054 191.006317,89.028854 190.981842,89.043327 &#xA;z"/>
  <path fill="#B5BBC1" stroke="none" d="&#xA;M111.254379,80.789200 &#xA;&#x9;C111.276878,80.817665 111.056946,81.040672 111.056946,81.040672 &#xA;&#x9;C111.056946,81.040672 111.064468,80.842575 111.121399,80.777161 &#xA;&#x9;C111.178337,80.711746 111.231873,80.760742 111.254379,80.789200 &#xA;z"/>
  <path fill="#EBEEF1" stroke="none" d="&#xA;M95.897751,109.118729 &#xA;&#x9;C95.986252,109.001640 96.027344,109.494453 96.049881,109.740669 &#xA;&#x9;C95.793297,109.794258 95.705582,109.543900 95.897751,109.118729 &#xA;z"/>
  <path fill="#E5EAEE" stroke="none" d="&#xA;M115.486771,106.514671 &#xA;&#x9;C115.477501,106.491043 115.496033,106.538300 115.486771,106.514671 &#xA;z"/>
  <path fill="#E4E6E7" stroke="none" d="&#xA;M145.603088,109.002083 &#xA;&#x9;C145.154572,107.932304 145.137436,106.862755 145.163269,105.393585 &#xA;&#x9;C147.841537,104.997421 150.476822,105.000862 153.556900,105.006805 &#xA;&#x9;C153.807404,111.251625 148.976135,108.241821 145.603088,109.002083 &#xA;z"/>
</svg>