<svg xmlns="http://www.w3.org/2000/svg" width="100%" viewBox="0 0 225 225" baseProfile="tiny-ps" height="150" xmlns:v="https://vecta.io/nano"><path fill="#0255b7" d="M225 226H1L1.469 2.473l63.961-.457 159.503.553L225 226M188.761 85.58c-.174-.291-.431-.446-1.058-.99-.602-.525-1.204-1.049-2.093-2.175-11.126-10.413-24.912-10.48-38.815-9.766-.892.046-2.342 2.144-2.396 3.338-.209 4.63.043 9.281-.034 14.808.075 2.074.151 4.148.004 7.002.086 1.067.171 2.133.029 3.963.011 1.06.022 2.12-.22 3.985.196 2.618.392 5.235 1.479 8.201h9.261l.2-13.667c-.051-1.089-.103-2.177.031-4.14-.055-2.381-.111-4.761.071-7.916-.363-3.93 1.643-5.603 5.256-4.734 4.926 1.185 9.739 2.839 15.055 4.786 1.877 1.573 3.753 3.146 5.719 5.189.165.299.413.487.755.532 0 0-.03.014.226.645 1.266 2.115 2.532 4.23 3.864 7.085.575 1.881 1.15 3.763 1.682 6.458.122 1.633.244 3.265.211 5.736.365 6.908-1.965 13.074-5.789 19.308-2.38 2.294-4.761 4.587-7.852 7.033-10.163 5.526-20.842 5.182-31.909 2.274-.271-.667-.541-1.335-.762-2.207 0 0-.196-.079-.375-.68-.728-1.29-1.457-2.579-2.236-4.413-.299-.429-.598-.858-1.026-2.007l-7.323-14.89-7.128-13.932-3.117-5.756s-.031-.002-.146-.546c-.326-.441-.651-.882-1.055-1.965-.409-.729-.817-1.459-1.34-2.875l-3.163-5.275c-.565-1.076-1.131-2.152-1.84-3.727l-1.696-3.501s-.054-.049-.104-.753l-4.043-8.194-4.038 8.674s-.093.46-.626.834c-.732 1.556-1.465 3.111-2.526 5.149a19.92 19.92 0 0 1-.884 2.026s-.096.485-.543.728c-.255.613-.509 1.225-1.246 2.398-.791 1.779-1.582 3.558-2.865 5.648-.208.541-.416 1.082-1.173 2.08-.146 1.174-.292 2.347-1.012 3.902l-5.365 9.241c-.226.512-.453 1.024-.943 1.825 0 0-.007.391-.522.783-.421.978-.842 1.955-1.741 3.436l-11.145 20.917-6.352 4.868c-2.388.229-4.777.458-7.781.397-1.109-.219-2.217-.439-3.363-.726 0 0-.069.035-.563-.41-3.018-3.38-6.035-6.759-9.042-10.64-.121-.309-.243-.618-.271-1.864l-.159-26.767c-.039-.459-.077-.919.038-2.269-.058-3.035-.115-6.07-.029-9.949l-1.402-18.809h-9.366l-.139 27.51a64.64 64.64 0 0 1-.012 5.066c.046 1.386.092 2.772.005 5.083l.255 20.608a16.93 16.93 0 0 1 .653 3.218c1.585 6.35 4.517 11.649 11.556 14.333.211.289.423.578.597 1.587 8.98 7.773 25.664 5.542 34.639-4.909l4.643-7.355 7.719-18.291s-.083.053.604-.085l1.319-1.386c.361-.877.722-1.754 1.561-3.052.494-1.163.987-2.325 1.998-3.988l5.268-11.084c.052-.218.105-.437.567-1.076 1.018-.422 2.037-.844 3.266-.61.79 1.363 1.581 2.726 2.428 4.784.97 1.796 1.941 3.593 3.022 6.085 1.5 2.811 3 5.621 4.667 9.164l8.095 15.889c.731 1.401 1.461 2.802 2.283 4.902 1.319 2.423 2.638 4.847 4.032 7.935.939 1.681 1.878 3.363 2.916 5.934 1.615.556 3.216 1.541 4.846 1.593 6.153.194 12.333.363 18.47-.007 4.224-.255 8.393-1.413 13.314-2.176 2.467-1.271 4.935-2.542 7.912-3.871.277-.19.555-.381 1.431-.878l7.367-6.616 4.834-7.144c4.49-7.589 5.294-15.86 4.649-25.197-.376-1.743-.752-3.485-1.001-5.889-.265-.806-.53-1.611-.833-3.183l-5.088-9.868c-.35-.418-.701-.836-1.002-1.283 0 0-.051.012-.037-.612-.384-.479-.768-.959-1.269-1.855-.173-.26-.415-.404-.72-.53 0 0-.097-.004-.219-.453m-46.757 4.319c-.002 2.701-.004 5.402-.188 8.328-.118.291-.057.549.188 1.494l.313 3.391c.682-6.182.801-12.295.639-18.4-.104-3.909-.624-7.806-1.398-11.013l.446 16.2m-35.998 58.099c1.247-.346 2.623-.464 3.714-1.084 2.781-1.581 3.447-4.727 1.777-6.667-1.234-1.433-4.865-2.07-6.806-1.361-4.025 1.471-3.557 6.063 1.315 9.112M46.011 91.501v19.608l.62-.019V75.091l-.62.003v16.408z"/><path fill="#2f77c1" d="M224.907 2.111L65.429 2.016 1.469 2.005C2.5 1.667 4 1.043 5.5 1.042l220.227.485c-.456.546-.638.565-.82.585z"/><path fill="#2069c5" d="M224.932 2.569c.157-.477.339-.497.795-.542L225.5 226l-.568-223.431z"/><path fill="#adb3bd" d="M175.078 87.781c-4.862-1.453-9.675-3.107-14.601-4.292-3.613-.869-5.62.804-5.56 5.315-1.499.791-2.69 1.139-3.891 1.179-2.165.073-4.336-.039-6.504-.073-.08-4.643-.332-9.294-.123-13.924.054-1.194 1.503-3.292 2.396-3.338 13.903-.714 27.689-.647 38.672 10.186-1.193 5.467-3.712 7.301-8.564 4.388-.365-.219-1.206.353-1.825.558z"/><path fill="#d4dae1" d="M136.008 152.659c-.939-1.681-1.878-3.363-2.638-5.518 2.823-2.613 5.467-4.752 8.111-6.891 0 0 .196.079.085.481.286 1.042.684 1.681 1.081 2.321 10.859 2.393 21.538 2.736 32.24-2.654 2.04.345 3.542.556 5.043.766 2.504-.373 4.432-.595 6.334-.461.898.063 1.749.808 2.621 1.244-2.268 2.088-4.536 4.175-7.223 6.284-.419.021-.666-.234-.636-.493-.062-.853-.154-1.447-.246-2.041-.634.396-1.707.718-1.789 1.206-.101.606.619 1.349 1.024 2.086.04.053.125.156.125.156-2.467 1.271-4.935 2.542-7.667 3.517.79-1.283 1.845-2.271 3.449-3.772-2.816.451-4.868.781-7.084.769-4.802-1.114-9.426-2.365-14.084-2.507-3.566-.109-7.175 1.183-11.154 1.851l-7.846-1.039.254 4.695m5.493-8.127s-.019-.049 0 0z"/><path fill="#f3f5f6" d="M94.122 120.226c-2.587 6.067-5.174 12.134-8.292 18.324-4.733-2.835-8.787-1.639-12.805.56 3.525-6.857 7.05-13.715 11.089-20.72 4.468-.091 1.9-2.305 1.742-3.68 0 0 .007-.391.445-.376 3.827.808 6.211 2.863 7.82 5.891z"/><path fill="#f3f6f6" d="M198.801 110.027c.775 8.563-.03 16.834-5.179 24.693-4.052-.45-8.135 2.208-10.853-1.812 3.256-5.912 5.586-12.078 5.555-19.171 3.313-.185 6.293-.185 9.287-.185l1.19-3.525z"/><path fill="#b7b8be" d="M34.166 99.953V73.287h9.366c.476 6.383.939 12.596 1.081 19.073-3.039-.5-5.756-1.263-9.091-2.2l-.509 7.198c-.303 1.071-.575 1.832-.847 2.594z"/><path fill="#f4f7f7" d="M130.814 119.037c2.408 4.731 4.817 9.461 6.972 14.474-1.736-.898-3.219-2.078-4.542-3.132l-6.485 3.723c-2.66-5.071-5.319-10.142-7.808-15.806 1.006-1.684 1.841-2.774 2.13-3.151l9.733 3.892z"/><path fill="#cdd2d5" d="M169.002 150.001l6.92-1.11-3.813 3.775c-4.293 1.055-8.462 2.214-12.686 2.468-6.137.37-12.317.201-18.47.007-1.63-.051-3.231-1.036-4.896-2.038l-.304-5.14c2.605.362 5.031.7 8.088 1.344 2.504.767 4.387 1.652 6.249 1.614 6.307-.131 12.607-.588 18.91-.921z"/><path fill="#f7f7f7" d="M44.991 132.018c.121.309.243.618.208 1.432-3.502 1.916-6.845 4.114-10.217.556-.236-.817-.472-1.635-.507-3.129.351-3.139.351-5.621.682-8.059.525-3.869 1.917-6.847 7.097-4.722.28-1.925.512-3.519.969-4.765.414 2.281.629 4.212.787 6.148l.979 12.539m-3.303-1.738l-.408.329c.155-.036.31-.071.408-.329z"/><path fill="#c2c6cb" d="M115.104 88.514c.943 1.583 1.885 3.167 2.788 5.395-3.173 1.86-6.306 3.076-9.438 4.291-1.018.422-2.037.844-3.356 1.149L94.849 96.96c.791-1.779 1.582-3.558 2.901-5.599 2.737-.502 5.05-1.258 7.127-.841 2.208.444 8.07-.161 10.226-2.007z"/><path fill="#e0e6ea" d="M34.955 134.389c3.399 3.175 6.742.977 10.239-.689 3.168 3.125 6.186 6.505 9.086 10.096-2.502.871-4.887 1.531-7.378 2.07-.316-.126-.526-.132-.736-.138.273.095.546.191.896.515-.313 1.042-.703 1.856-1.093 2.669-6.525-2.493-9.457-7.791-11.014-14.524z"/><path fill="#cad1d8" d="M81.149 146.136c-8.405 10.097-25.089 12.328-33.75 4.261 1.413-.662 2.506-1.03 3.977-1.316 5.482 2.015 10.581 3.53 16.038-.082 2.454-.357 4.495-.714 6.856-1.152l6.879-1.711z"/><path fill="#dfe4e8" d="M81.434 145.959c-2.471.72-4.658 1.264-7.376 1.628l-7.269-3.676 5.953-4.628c4.303-2.371 8.357-3.567 12.875-.46-1.088 2.419-2.492 4.689-4.182 7.136z"/><path fill="#e5eaee" d="M130.765 118.688c-2.975-.86-5.998-2.069-9.684-3.543-.289.377-1.124 1.467-2.213 2.785-1.755-2.583-3.254-5.394-4.583-8.667 3.923-.077 7.636.212 9.44-4.215l7.041 13.642z"/><path fill="#e4e6e7" d="M198.866 109.64l-1.255 3.912c-2.995 0-5.974 0-9.21-.234-.379-1.867-.5-3.499-.479-5.892 1.795-4.151 4.217-4.329 7.315-2.706.576.302 1.697-.437 2.566-.696l1.063 5.615z"/><path fill="#bbbfc2" d="M175.305 88.028c.392-.452 1.233-1.024 1.598-.805 4.852 2.912 7.371 1.079 8.708-4.088.888.405 1.49.929 2.355 1.898.446.67.665.854.919.995 0 0 .097.004.206.221.283.428.489.599.728.73.384.479.768.959 1.104 1.784-.048.346.036.294.036.294.35.418.701.836 1.052 1.863-.952 1.57-1.813 3.21-2.876 3.353-2.331.314-4.765-.129-7.157-.263 0 0 .03-.014-.103-.178l-.711-.838-5.857-4.966z"/><path fill="#a9b1ba" d="M111.277 80.818c.55 1.148 1.101 2.296 1.591 4.028-.859 1.057-2.173 2.103-2.38 1.917-3.271-2.944-6.882-.322-10.264-.773.732-1.556 1.465-3.111 2.587-4.787l.794-.27-.337-.859 3.817-8.26c1.657 3.358 2.85 5.776 4.011 8.611l-.039.615.22-.223z"/><path fill="#ebeef1" d="M182.485 133.069c3.002 3.859 7.085 1.201 10.901 1.922-1.03 2.202-2.484 4.402-4.219 6.78-1.153-.259-2.003-1.004-2.902-1.067-1.902-.134-3.83.088-6.334.461-1.501-.21-3.002-.42-4.687-.841 2.197-2.505 4.577-4.799 7.241-7.254z"/><path fill="#dee6ef" d="M105.648 147.993c-4.513-3.044-4.981-7.636-.957-9.107 1.941-.709 5.572-.072 6.806 1.361 1.67 1.939 1.004 5.085-1.777 6.667-1.091.62-2.468.738-4.073 1.079z"/><path fill="#e5e5ec" d="M87.149 112.023c1.674-2.923 3.349-5.847 5.616-8.819 4.245.652 3.243 3.445 3.133 5.915-.192.425-.104.676.369.613.929-1.517 1.664-2.78 2.779-4.693v7.086c-.494 1.163-.987 2.325-1.973 3.603-2.446-4.097-6.503-3.117-9.924-3.705z"/><path fill="#dedfe0" d="M66.447 144.117c2.588.959 4.833 2.125 7.292 3.55-1.829.617-3.87.975-6.605 1.074-5.162-.907-9.62-1.657-14.109-2.085-.595-.057-1.346 1.521-2.025 2.342-1.093.368-2.187.736-3.581 1.038-.512-.355-.724-.644-1.192-1.028.133-.909.523-1.722.843-2.771-.07-.236-.061-.251-.061-.251l7.519-1.968c.364.012.433-.024.736.2 1.427.413 2.551.603 3.675.792 2.388-.229 4.777-.458 7.507-.894z"/><path fill="#c3cbd2" d="M182.104 94.326c2.264-.182 4.697.262 7.029-.052 1.063-.143 1.925-1.784 2.942-3.087 1.717 2.77 3.369 5.882 4.71 9.295-3.792.369-7.273.438-10.755.507l-3.926-6.661z"/><path fill="#e2e7e9" d="M45.038 131.55c-.371-3.711-.684-7.892-1.026-12.07-.158-1.935-.373-3.866-.787-6.465-.279-1.58-.333-2.494-.327-2.392l-8.744-.602c-.046-1.386-.092-2.772.326-4.58 2.585-.39 5.93.479 6.59-.487 1.748-2.558 2.544-.099 3.707.037l.261 26.56z"/><path fill="#ebeef1" d="M34.087 110.483c2.855-.271 5.643-.079 8.811.139-.006-.102.049.812.103 2.043l-.745 5.431c-5.18-2.125-6.572.853-7.097 4.722-.331 2.438-.332 4.92-.638 7.74-.272-6.299-.386-12.956-.434-20.075z"/><path fill="#d8dce1" d="M123.657 104.727c-1.736 4.748-5.449 4.459-9.427 4.187-1.197-1.681-2.167-3.478-2.962-5.89 1.346-.956 2.876-1.942 3.626-1.525 3.499 1.945 4.766.156 5.595-2.82l3.168 6.048m-8.161 1.812s-.019-.047 0 0z"/><path fill="#c4c5c8" d="M144.444 90.353c2.247-.408 4.418-.296 6.582-.369 1.201-.04 2.392-.388 3.772-.792.24 2.186.295 4.567-.187 7.379-3.698.436-6.86.441-10.021.446l-.148-6.664z"/><path fill="#b5bbc1" d="M100.059 86.23c3.546.21 7.158-2.412 10.429.532.206.186 1.521-.86 2.452-1.667.697.741 1.262 1.818 1.995 3.156-1.989 2.109-7.851 2.713-10.059 2.269-2.077-.417-4.39.339-6.886.561-.032-.631.222-1.244.804-2.064.525-.413.578-.655.484-.935.205-.537.411-1.074.781-1.852z"/><path fill="#e3e7ea" d="M141.392 139.95c-2.555 2.44-5.199 4.579-8.059 6.859-1.536-2.282-2.855-4.705-3.906-7.569 3.409-1.447 6.55-2.453 9.69-3.46l2.275 4.17z"/><path fill="#c6c9cc" d="M35.044 97.05l.478-6.889 9.019 2.621a59.87 59.87 0 0 1 .177 9.411c-.602-1.346-.959-2.84-1.002-3.021l-8.672-2.122z"/><path fill="#d6d6d7" d="M35.013 97.358c2.615.323 5.198.956 8.703 1.813l.926 3.466c.207.757.246 1.217.21 2.014-1.237.202-2.033-2.257-3.781.301-.66.966-4.005.097-6.524.075-.439-1.404-.479-2.818-.45-4.654l.916-3.016z"/><path fill="#eef1f3" d="M139.092 135.508c-3.115 1.278-6.256 2.284-9.71 3.382-1.044-1.31-1.775-2.71-2.564-4.45 2.048-1.547 4.153-2.756 6.426-4.061 1.323 1.053 2.806 2.233 4.607 3.491.617.507.916.936 1.241 1.638z"/><path fill="#dbdee0" d="M99.304 111.875c-.259-1.776-.259-3.802-.259-6.837l-2.801 4.446c-.217.009-.258-.484-.258-.484.022-2.353 1.024-5.146-2.935-5.989-.16-1.315-.014-2.489.767-3.797 3.67 1.935 6.813 3.463 10.581 1.843l-5.095 10.817z"/><path fill="#e5eaee" d="M154.918 101.079v12.868c-3.136 0-6.198 0-9.614-.54-.28-1.829-.206-3.117.299-4.404 3.373-.76 8.204 2.25 8.404-4.387.031-1.443.058-2.491.291-3.538l.621.003z"/><path fill="#caced5" d="M120.48 98.665c-.822 2.99-2.088 4.779-5.587 2.834-.75-.417-2.28.569-3.654 1.178-.995-1.094-1.785-2.458-2.681-4.149 3.028-1.543 6.16-2.759 9.39-4.276.505.428.914 1.157 1.189 2.422.345 1.015.824 1.494 1.303 1.974 0 0 .031.002.04.017z"/><path fill="#d3d7dc" d="M186.063 101.357c3.448-.439 6.93-.508 10.741-.493.595.889.86 1.694 1.062 2.83-.933.589-2.054 1.328-2.629 1.026-3.097-1.624-5.519-1.445-7.293 2.298-.697-1.529-1.272-3.41-1.88-5.661z"/><path fill="#d3d1d2" d="M155.018 100.679c-.1.4-.514.398-1.168.376l-9.224-.059-.146-3.59c3.272-.395 6.433-.4 10.039-.399.496 1.094.547 2.183.499 3.671z"/><path fill="#ebeef1" d="M86.978 112.258c3.592.353 7.649-.628 9.856 3.68-.107.973-.469 1.85-1.317 3.091l-1.519 1.159s.083-.053.104-.008c-1.589-2.983-3.973-5.038-7.668-5.991-.08-.672.147-1.184.544-1.932z"/><path fill="#cdd2d5" d="M104.615 100.8c-3.984 1.879-7.127.351-10.522-1.813-.153-.635.056-1.176.51-1.872 3.562.602 6.878 1.359 10.29 2.444.043.546-.009.764-.277 1.241z"/><path fill="#0053c4" d="M46.011 91.002V75.094l.62-.003v35.999l-.62.019V91.002z"/><path fill="#d8d9db" d="M144.512 101.378c2.971-.369 5.827-.357 9.131-.324.421 1.069.395 2.117-.082 3.557-3.085.389-5.72.385-8.548.344-.192-.038-.583-.016-.583-.016l.081-3.561z"/><path fill="#0053c4" d="M141.998 73.002c.334 3.903.854 7.8.958 11.709.163 6.105.043 12.218-.639 18.4l-.315-4.001-.003-1.108.004-9.02-.005-15.98z"/><path fill="#0355ab" d="M141.778 73.351c.221 4.673.222 9.694.222 15.181-.148-4.633-.295-9.733-.222-15.181z"/><path fill="#adb3bd" d="M144.305 105.343c.126-.403.517-.425.666.013.166 1.507.183 2.577.2 3.646l-.313 4.231c-.288-2.251-.484-4.869-.554-7.89z"/><path fill="#ebeef1" d="M85.6 114.907c.415 1.179 2.983 3.393-1.246 3.233.147-1.082.568-2.059 1.246-3.233z"/><path fill="#e0e6ea" d="M58.632 144.865c-.816-.044-1.94-.234-3.349-.613.824.029 1.933.249 3.349.613z"/><path fill="#e3e7ea" d="M142.543 142.795c-.293-.382-.691-1.021-1.002-1.96.357.368.627 1.035 1.002 1.96z"/><path fill="#d8dce1" d="M120.384 98.376c-.422-.207-.901-.687-1.207-1.381.498.226.824.668 1.207 1.381z"/><path fill="#b5bbc1" d="M103.158 80.281c.223.079.335.366.448.652-.135.05-.269.1-.528.082-.124-.067-.03-.527.08-.734z"/><path fill="#c2c6cb" d="M99.145 88.29c.227.072.175.315-.126.606-.103.086-.008-.399.126-.606z"/><path fill="#adb3bd" d="M189.759 86.771c-.18.077-.387-.094-.672-.473.199-.14.44.005.672.473z"/><path fill="#d4dae1" d="M181.363 148.384c-.158.322-.436.513-.968.732-.255.029-.339-.074-.231-.306.323-.459.564-.652.832-.813l.367.387z"/><path fill="#adb3bd" d="M188.823 85.804c-.193.083-.412-.101-.713-.507.221-.163.478-.008.713.507z"/><path fill="#c3cbd2" d="M181.207 93.229c.162-.023.355.201.662.619-.204.104-.453-.084-.662-.619z"/><path fill="#0355ab" d="M141.908 98.114c.091-.112.092.386.091.635-.239.026-.3-.231-.091-.635z"/><path fill="#f3f5f6" d="M94.341 120.12c0-.196.344-.46.971-.885-.02.165-.324.491-.971.885z"/><path fill="#d8d9db" d="M168.838 149.66c-6.139.673-12.439 1.131-18.746 1.262-1.863.039-3.745-.846-5.86-1.612 3.348-.974 6.957-2.266 10.523-2.157 4.658.142 9.282 1.393 14.084 2.507z"/><path fill="#cdd2d5" d="M181.027 147.738c-.298.42-.54.614-.903 1.019-.514-.505-1.233-1.248-1.132-1.854.082-.488 1.155-.81 1.789-1.206l.246 2.041z"/><path fill="#e3e7ea" d="M141.491 144.508c-.01-.024.01.024 0 0z"/><path fill="#e0e6ea" d="M41.716 130.392c-.126.147-.281.182-.436.218.136-.11.272-.22.436-.218z"/><path fill="#dedfe0" d="M46.992 146.008l-.825-.28c.21.006.42.012.736.138.106.12.096.135.089.142z"/><path fill="#d8d9db" d="M51.376 149.081c.302-.903 1.053-2.481 1.648-2.424 4.489.428 8.947 1.178 13.696 2.084-4.763 3.87-9.863 2.355-15.344.34z"/><path fill="#c3cbd2" d="M190.982 89.043c-.024.014-.108.067-.067.032s.092-.047.067-.032z"/><path fill="#b5bbc1" d="M111.254 80.789c.022.028-.197.251-.197.251s.008-.198.064-.264.11-.016.133.012z"/><path fill="#ebeef1" d="M95.898 109.119c.089-.117.13.376.152.622-.257.054-.344-.197-.152-.622z"/><path fill="#e5eaee" d="M115.487 106.515c-.009-.024.009.024 0 0z"/><path fill="#e4e6e7" d="M145.603 109.002c-.449-1.07-.466-2.139-.44-3.608 2.678-.396 5.314-.393 8.394-.387.251 6.245-4.581 3.235-7.954 3.995z"/></svg>